<svg xmlns="http://www.w3.org/2000/svg" viewBox="0 0 1920 1081"><defs><style>.cls-1{fill:#4b5d6f;}.cls-2{fill:#1efefe;}.cls-3{fill:#ffe47a;}.cls-4{fill:#401b04;}.cls-5{fill:#fe5455;}.cls-6{fill:#0c95ed;}.cls-7{fill:#28292c;}.cls-8{fill:#9baab9;}.cls-9{fill:#e1e6eb;}.cls-10{fill:#cdd5dd;}.cls-11{fill:#8c6134;}.cls-12{fill:#603509;}.cls-13{fill:#097b98;}.cls-14{fill:#fff;}.cls-15{fill:#fbbc93;}.cls-16{fill:#815f48;}.cls-17{fill:#2b2c2e;}.cls-18{fill:none;stroke:#000;stroke-miterlimit:10;stroke-width:8px;}.cls-19{fill:#392013;}.cls-20{fill:#e6e6e6;}.cls-21{fill:#b3b3b3;}.cls-22{fill:#ccc;}.cls-23{fill:#d0d0d0;}.cls-24{fill:#ebf1f2;}.cls-25{fill:#4fba88;}.cls-26{fill:#f7f6eb;opacity:0.5;}.cls-27{fill:#ffe69c;}.cls-28{fill:#cacaca;}</style></defs><title>Ресурс 3</title><g id="Слой_2" data-name="Слой 2"><g id="ЛАМПА"><rect class="cls-1" x="1" width="1919" height="1080"/><rect class="cls-2" x="1362" y="238" width="191" height="36" rx="5.37" ry="5.37"/><rect class="cls-3" x="213" y="127" width="268" height="36" rx="5.37" ry="5.37"/><rect class="cls-4" x="347" y="238" width="221" height="36" rx="5.37" ry="5.37"/><rect class="cls-2" x="651" y="238" width="268" height="36" rx="5.37" ry="5.37"/><rect class="cls-2" x="978" y="238" width="177" height="36" rx="5.37" ry="5.37"/><rect class="cls-2" x="1195" y="238" width="140" height="36" rx="5.37" ry="5.37"/><rect class="cls-2" x="347" y="349" width="268" height="36" rx="5.37" ry="5.37"/><rect class="cls-5" x="656" y="340" width="170" height="36" rx="5.37" ry="5.37"/><rect class="cls-2" x="347" y="442" width="182" height="36" rx="5.37" ry="5.37"/><rect class="cls-2" x="1141" y="340" width="233" height="36" rx="5.37" ry="5.37"/><rect class="cls-2" x="867" y="340" width="239" height="36" rx="5.37" ry="5.37"/><rect class="cls-2" x="568" y="442" width="100" height="36" rx="5.37" ry="5.37"/><rect class="cls-2" x="700" y="442" width="158" height="36" rx="5.37" ry="5.37"/><rect class="cls-2" x="891" y="451" width="202" height="36" rx="5.37" ry="5.37"/><rect class="cls-6" x="347" y="544" width="268" height="36" rx="5.37" ry="5.37"/><rect class="cls-2" x="661" y="544" width="268" height="36" rx="5.37" ry="5.37"/><rect class="cls-3" x="972" y="544" width="205" height="36" rx="5.37" ry="5.37"/><rect class="cls-4" x="1220" y="544" width="205" height="36" rx="5.37" ry="5.37"/><rect class="cls-2" x="347" y="646" width="124" height="36" rx="5.37" ry="5.37"/><rect class="cls-2" x="511" y="646" width="268" height="36" rx="5.37" ry="5.37"/><rect class="cls-5" x="1013" y="646" width="268" height="36" rx="5.37" ry="5.37"/><rect class="cls-2" x="1425" y="340" width="203" height="36" rx="5.37" ry="5.37"/><rect class="cls-6" x="1340" y="646" width="268" height="36" rx="5.37" ry="5.37"/><rect class="cls-2" x="1464" y="543" width="214" height="36" rx="5.37" ry="5.37"/><rect class="cls-2" x="1129" y="442" width="233" height="36" rx="5.37" ry="5.37"/><rect class="cls-4" x="1396" y="442" width="233" height="36" rx="5.37" ry="5.37"/><rect class="cls-3" x="213" y="850" width="268" height="36" rx="5.37" ry="5.37"/><rect class="cls-4" x="701" y="561" width="519" height="519" rx="82.86" ry="82.86"/><rect class="cls-7" x="97" y="775" width="40" height="222"/><rect class="cls-8" x="217" y="775" width="40" height="218"/><rect class="cls-9" x="177" y="775" width="40" height="222"/><rect class="cls-10" x="137" y="775" width="40" height="222"/><rect class="cls-11" y="1037" width="1920" height="44"/><rect class="cls-12" y="993" width="1920" height="44"/><rect class="cls-8" x="287" y="775" width="40" height="217" transform="translate(-257.81 137.97) rotate(-17.99)"/><path class="cls-13" d="M1312,934.92c-34.6-82.39-110.77-225.44-154-300.92-44.13-35.24-290.91-47.34-398.94-5.75l-25.25,39.23S615.91,893.82,601,940.86l-3,22.83A29.31,29.31,0,0,0,627.31,993h658.38A29.31,29.31,0,0,0,1315,963.69,64.66,64.66,0,0,0,1312,934.92ZM795,930l-94-19,94-187Zm324,0V724l94,187Z"/><rect class="cls-14" x="911" y="601" width="92" height="15"/><rect class="cls-15" x="912" y="532" width="90" height="112" rx="45" ry="45"/><g id="бошка"><rect id="голова" class="cls-15" x="835" y="266" width="243" height="325" rx="108.01" ry="108.01"/><g id="глаза"><ellipse class="cls-16" cx="894.5" cy="439" rx="14.5" ry="7"/><ellipse class="cls-16" cx="1013.5" cy="439" rx="14.5" ry="7"/></g><polyline class="cls-17" points="1079 444 1084 419 1077 419 1079 444"/><path class="cls-7" d="M843,470.59l0-.42s0-.06,0-.09v0L839,425.64l-4.24,3.65-.76,42.4,9-.69v-.06A.54.54,0,0,1,843,470.59Z"/><polygon class="cls-7" points="1079 472.29 1079 418 1072 422 1070 471 1079 472.29"/><path class="cls-7" d="M1079,487.54V471h-8.84c-14.78,23.94-45.48,38.38-99.16,37H945c-55.08,2-86.85-12.2-101.56-36.47l0,0A2.71,2.71,0,0,1,843,471h-9v16.54C831.32,545.19,880,591.36,940.82,591h31.36C1033.68,591.62,1082.73,545.6,1079,487.54Z"/><g id="волосы"><polyline class="cls-17" points="835.78 391.49 836 433 834 434 811 415 811 390"/><path class="cls-17" d="M1097.19,389.61c11.24-52.07,11.34-88.37-5.19-101.11-21.12-22.22-50.77-38.07-91-46-38.43-2.07-67.92-11-87-28,3.3,11.17,8.91,19.25,17,24-41.93,8.16-82,7.7-120-2,6,19.31,20.65,32.66,41,42-35.2,8.86-68.12,10.35-98,2a176.7,176.7,0,0,0,54,69l3,41,24.78,1L834.5,360c45.5-12.53,61.12-10.78,39,9,22.31-.13,41.78-3,58-9l1,12c35.47-8.44,62.5-16.32,72-23,10.6,8.05,16.8,15.54,15,22h27c16.46-.76,28.16-2.81,32-7l-1,26.86s0,.05,0,.09v.23h0a.39.39,0,0,1,0,.15.19.19,0,0,1,0,.08v.08l19.38-1A4.14,4.14,0,0,1,1097.19,389.61Z"/><polyline class="cls-17" points="1097 390 1091 422 1078 427 1078 401 1077.49 390.7"/></g><path class="cls-17" d="M836.51,361a86.6,86.6,0,0,0,8-4.44A1.5,1.5,0,0,0,843,354a87.92,87.92,0,0,1-8,4.44c-1.75.81-.23,3.4,1.51,2.59Z"/><path class="cls-17" d="M1076.25,364.94c1.08,2.2,1,4.68,1.28,7.06a44.5,44.5,0,0,0,1,5.72c.47,1.87,3.37,1.08,2.9-.8-1.1-4.41-.59-9.37-2.61-13.49-.85-1.73-3.44-.22-2.59,1.51Z"/><path class="cls-17" d="M835.91,358.23a6.74,6.74,0,0,0-2.66,4.94c-.39,2.73-1,5.46-1.36,8.2-.28,1.89,2.61,2.7,2.9.79s.47-4,.9-6c.34-1.56.38-4.51,1.74-5.38,1.62-1,.12-3.64-1.52-2.59Z"/><path class="cls-17" d="M1077.65,373.28a19.49,19.49,0,0,1,.33,2.63h3l0-1.64a1.5,1.5,0,0,0-3,0l0,4.84a1.5,1.5,0,0,0,3,0l0-4.84h-3l0,1.64a1.5,1.5,0,0,0,3,0,19.29,19.29,0,0,0-.33-2.63,1.56,1.56,0,0,0-1.5-1.5,1.5,1.5,0,0,0-1.5,1.5Z"/><path class="cls-15" d="M1102.6,404.12c-10.55-.71-16,5.45-20.14,13.37-.06.2-.14.39-.19.59L1079,436.55c0,.08,0,.15,0,.22l0,52.91a8.52,8.52,0,0,0,7,.13c4.56-2.42,6.76-6.52,7.22-11.86l1.18-9.84a.56.56,0,0,1,.09-.31l0,0a.43.43,0,0,1,.09-.22l1.91-4.53s15-24.58,17.55-33.31a.76.76,0,0,1,0-.15,1.89,1.89,0,0,1,.1-.41l.15-7.8C1113,409.19,1108.9,403.89,1102.6,404.12Z"/><path class="cls-15" d="M812.17,403c10.5-.49,15.79,5.77,19.75,13.77.06.2.13.4.18.6L835,435.9c0,.08,0,.15,0,.23L834,489a8.47,8.47,0,0,1-7,0c-4.48-2.51-6.59-6.66-7-12l-1-9.86a.48.48,0,0,0-.08-.31l0,0a.58.58,0,0,0-.08-.22L817.09,462s-14.43-24.88-16.77-33.66a.76.76,0,0,1,0-.15,1.87,1.87,0,0,0-.09-.41V420C801.76,407.87,805.91,402.65,812.17,403Z"/><path class="cls-18" d="M896.14,468H876.86A37.86,37.86,0,0,1,839,430.14V403h95v27.14C933.23,449.79,915.43,465.37,896.14,468Z"/><path class="cls-18" d="M1017.86,468h19.28A37.86,37.86,0,0,0,1075,430.14V403H980v27.14C980.77,449.79,998.57,465.37,1017.86,468Z"/><path class="cls-18" d="M934,422q22-10.06,46,0"/><g id="Брови"><rect class="cls-19" x="974" y="396" width="109" height="14" rx="6.79" ry="6.79"/><rect class="cls-19" x="832" y="396" width="109" height="14" rx="6.79" ry="6.79"/></g><path class="cls-15" d="M979.87,549a134.88,134.88,0,0,1-46.74,0A16.13,16.13,0,0,1,917,532.87h0a7.87,7.87,0,0,1,7.87-7.87,150.39,150.39,0,0,0,63.26,0,7.87,7.87,0,0,1,7.87,7.87h0A16.13,16.13,0,0,1,979.87,549Z"/></g><path class="cls-20" d="M927,648.84c20.73-9.76,41.07-9.88,61,.32C967.83,663,947.49,662.57,927,648.84Z"/><rect class="cls-21" x="957" y="642" width="2" height="18" rx="0.76" ry="0.76"/><path class="cls-14" d="M957,641.43v1.28c-21.15-.41-42,8.09-50,25.29-7.46-29-7.3-52.22,4-67C915.74,629.1,936.5,641.33,957,641.43Z"/><path class="cls-14" d="M957,641.43v1.28c21.15-.41,42,8.09,50,25.29,7.46-29,7.3-52.22-4-67C998.26,629.1,977.5,641.33,957,641.43Z"/><path class="cls-22" d="M1176,784.68l0,2.26c-.44-8-5.84-14.34-12.53-14.34H763c-6.63,0-12,6.21-12.45,14.14l0-2.06C750.37,776,756,769,763,769h400.42C1170.5,769,1176.13,776,1176,784.68Z"/><path class="cls-20" d="M1172.06,993H755.18L750.3,784.06A12.58,12.58,0,0,1,762.79,771h400.42a12.66,12.66,0,0,1,12.56,13.06Z"/><circle class="cls-23" cx="960" cy="882" r="40"/><g id="Слой_2-2" data-name="Слой 2"><g id="Слой_8" data-name="Слой 8"><path class="cls-24" d="M979.78,862.09V905a4.68,4.68,0,0,1-4.68,4.67H944.29a4.68,4.68,0,0,1-4.68-4.67h0V862.09a4.69,4.69,0,0,1,4.68-4.68h13.32a4,4,0,0,0-.51,1.62h-3.89a1.54,1.54,0,0,0-.6.13H946a4.67,4.67,0,0,0-4.68,4.68v39.41a4.68,4.68,0,0,0,4.68,4.68h27.44a4.68,4.68,0,0,0,4.67-4.68V863.84a4.67,4.67,0,0,0-4.67-4.68h-6.71a1.49,1.49,0,0,0-.59-.13h-3.39a4.06,4.06,0,0,0-.52-1.62H975.1A4.69,4.69,0,0,1,979.78,862.09Z"/><path class="cls-24" d="M952.54,875.37h-4.77a1.81,1.81,0,0,0-1.8,1.8v3.89a1.81,1.81,0,0,0,1.8,1.8h4.77a1.8,1.8,0,0,0,1.79-1.8v-3.89A1.8,1.8,0,0,0,952.54,875.37Zm.67,4.59a1.89,1.89,0,0,1-1.88,1.89H949A1.89,1.89,0,0,1,947.1,880h0v-1.71a1.88,1.88,0,0,1,1.88-1.88h2.35a1.88,1.88,0,0,1,1.88,1.88h0Z"/><path class="cls-24" d="M952.54,883.61h-4.77a1.8,1.8,0,0,0-1.8,1.79v3.9a1.8,1.8,0,0,0,1.8,1.79h4.77a1.79,1.79,0,0,0,1.79-1.79v-3.9A1.79,1.79,0,0,0,952.54,883.61Zm.67,4.71a1.88,1.88,0,0,1-1.88,1.88H949a1.88,1.88,0,0,1-1.88-1.88v-1.71a1.88,1.88,0,0,1,1.88-1.88h2.35a1.88,1.88,0,0,1,1.88,1.88h0Z"/><path class="cls-24" d="M952.54,891.84h-4.77a1.8,1.8,0,0,0-1.8,1.79v3.9a1.8,1.8,0,0,0,1.8,1.79h4.77a1.79,1.79,0,0,0,1.79-1.79v-3.9A1.79,1.79,0,0,0,952.54,891.84Zm.67,4.59a1.88,1.88,0,0,1-1.88,1.88H949a1.88,1.88,0,0,1-1.88-1.88v-1.71a1.88,1.88,0,0,1,1.88-1.88h2.35a1.88,1.88,0,0,1,1.88,1.88h0Z"/><rect class="cls-24" x="956.45" y="877.37" width="17.09" height="3.62"/><rect class="cls-24" x="956.45" y="885.48" width="17.09" height="3.62"/><rect class="cls-24" x="956.45" y="893.83" width="17.09" height="3.62"/><rect class="cls-24" x="956.7" y="858.16" width="6.61" height="0.87"/><polygon class="cls-24" points="972.17 879.18 957.57 879.18 957.57 879.18 972.17 879.18 972.17 879.18"/><polygon class="cls-24" points="972.29 887.41 957.7 887.41 957.7 887.41 972.29 887.41 972.29 887.41"/><polygon class="cls-24" points="972.17 895.64 957.57 895.64 957.57 895.64 972.17 895.64 972.17 895.64"/><path class="cls-24" d="M965.93,857.41h-3.66a4.06,4.06,0,0,1,.52,1.62h3.39a1.49,1.49,0,0,1,.59.13l.1,0,.1.06.08.06.09.06.08.08a1,1,0,0,1,.14.15l.06.09a.47.47,0,0,1,.06.09h0l0,.08s0,0,0,.08v0a1.72,1.72,0,0,1,.07.21s0,.06,0,.09h0s0,.06,0,.09a.06.06,0,0,1,0,.06v1.95a1.5,1.5,0,0,1-1.49,1.5h-13a1.5,1.5,0,0,1-1.5-1.5v-2a.31.31,0,0,1,0-.1h0a.29.29,0,0,1,0-.09l.06-.21,0,0,0-.08,0-.08h0a.41.41,0,0,1,.05-.09l.07-.09a1,1,0,0,1,.14-.15,132696061660.42,132696061660.42,0,0,1,.16-.14l.09-.06.09,0,.1-.05a1.59,1.59,0,0,1,.61-.13h3.89a4,4,0,0,1,.51-1.62h-3.9a3.62,3.62,0,0,0-3.62,3.62v1a3.62,3.62,0,0,0,3.62,3.61h12.22a3.62,3.62,0,0,0,3.62-3.61v-1A3.62,3.62,0,0,0,965.93,857.41Z"/><path class="cls-24" d="M959.88,858.47l-3.43-.08a3.43,3.43,0,1,1,6.86.08Z"/></g></g><path class="cls-25" d="M1519,979l-82-.56c.31-44.77,37.23-81.44,82-81.44,45,0,82,37,82,82Z"/><rect class="cls-7" x="1433" y="976" width="173" height="17" rx="8.5" ry="8.5"/><rect class="cls-25" x="1539.19" y="789.33" width="15.88" height="121.54" transform="translate(285.97 -385.12) rotate(15.62)"/><rect class="cls-25" x="1526.19" y="688.33" width="15.88" height="121.54" transform="translate(-169.02 867.42) rotate(-30)"/><polygon class="cls-26" points="1461 675 1461 802.68 1348.18 993 752.36 993 1349.02 675 1461 675"/><circle class="cls-7" cx="1564.5" cy="799.5" r="15.5"/><circle class="cls-27" cx="1402" cy="738" r="36"/><rect class="cls-7" x="1447.53" y="607.96" width="67.02" height="107" rx="33.51" ry="33.51" transform="translate(912.62 -857.72) rotate(45.42)"/><path class="cls-25" d="M1462.82,795.74,1342.66,678.35c51.77-37.72,110.19-45.42,138.76-15.35C1509,692.06,1499.93,747.17,1462.82,795.74Z"/><circle class="cls-7" cx="1533" cy="904" r="23"/><circle class="cls-28" cx="1533" cy="904" r="16"/><circle class="cls-25" cx="1533" cy="904" r="12"/><circle class="cls-7" cx="1508" cy="699" r="23"/><circle class="cls-28" cx="1508" cy="699" r="16"/><circle class="cls-25" cx="1508" cy="699" r="12"/><rect class="cls-7" x="1312.79" y="729.75" width="178.93" height="17" rx="8.5" ry="8.5" transform="translate(1852.76 2257.59) rotate(-134.28)"/><circle class="cls-28" cx="1564.5" cy="799.5" r="7.5"/></g></g></svg>