<svg xmlns="http://www.w3.org/2000/svg" viewBox="0 0 256 286"><defs><style>.cls-1{fill:#efc825;}.cls-2{fill:#f9e034;}.cls-3{fill:#ecedee;}</style></defs><title>жабий скрип</title><g id="Слой_2" data-name="Слой 2"><g id="Слой_1-2" data-name="Слой 1"><polygon id="_1" data-name="1" class="cls-1" points="0 0 256 0 233 256 128 286 22 255 0 0"/><polygon class="cls-2" points="126 24 126 262 209 239 229 24 126 24"/><polygon class="cls-3" points="193 40 67 40 56 156 164 156 160 197 126 206 91 197 88 171 56 171 60 222 125 240 191 222 200 124 91 124 96 74 164 76 167 109 200 108 193 40"/></g></g></svg>