<svg xmlns="http://www.w3.org/2000/svg" viewBox="0 0 360.5 143.86"><defs><style>.cls-1{fill:#388e3c;}.cls-2{fill:#37474f;}.cls-3{fill:#2e7d32;}.cls-4{fill:#4caf50;}</style></defs><title>Ресурс 2</title><g id="Слой_2" data-name="Слой 2"><g id="Слой_1-2" data-name="Слой 1"><polygon class="cls-1" points="319.64 88.86 312.88 92.65 312.88 100.07 319.64 103.86 326.4 100.07 326.4 92.81 319.64 88.86"/><path class="cls-2" d="M44.6,76.86a6,6,0,0,0-5.25-.1L25.65,84A5.48,5.48,0,0,0,23,88.36v30a5.94,5.94,0,0,1-2.56,4.56L2.56,133.8C1.15,134.66,0,134,0,132.36v-55a5.58,5.58,0,0,1,2.63-4.44L39.37,52.8a6,6,0,0,1,5.25,0L80.38,72.89A5.68,5.68,0,0,1,83,77.36v54c0,1.65-1.19,2.35-2.63,1.56L63.63,123.8A5.61,5.61,0,0,1,61,119.36v-30a5.76,5.76,0,0,0-2.6-4.5Z"/><path class="cls-2" d="M252.1.35c-1.43-.82-2.6-.14-2.6,1.51v57c0,1.65-1.18,2.35-2.63,1.55L232.13,52.3a6,6,0,0,0-5.25,0L191.12,72.39a5.68,5.68,0,0,0-2.62,4.47v39a5.68,5.68,0,0,0,2.62,4.47l35.76,20.06a6,6,0,0,0,5.24,0l35.76-20.06a5.68,5.68,0,0,0,2.62-4.47v-102a5.74,5.74,0,0,0-2.6-4.49Zm-4.6,103.51a5.48,5.48,0,0,1-2.65,4.4l-13.7,7.2a6.19,6.19,0,0,1-5.27-.06l-12.76-7.08a5.66,5.66,0,0,1-2.62-4.46v-15a5.48,5.48,0,0,1,2.65-4.4l13.7-7.2a6.16,6.16,0,0,1,5.27.06l12.76,7.08a5.65,5.65,0,0,1,2.62,4.46Z"/><path class="cls-2" d="M300.5,102.86a5.74,5.74,0,0,0,2.6,4.49l34.8,20c1.43.83,1.45,2.21.05,3.08l-15.9,9.84a5.62,5.62,0,0,1-5.17.11l-35.76-20.06a5.86,5.86,0,0,1-2.69-4.47l-.86-39a5.41,5.41,0,0,1,2.56-4.44L316.87,52.3a6,6,0,0,1,5.25,0l35.76,20.06a5.68,5.68,0,0,1,2.62,4.47v11A6.12,6.12,0,0,1,358,92.47L341,103.25c-1.39.88-2.53.26-2.53-1.39v-13a5.48,5.48,0,0,0-2.65-4.4l-13.7-7.2a6.37,6.37,0,0,0-5.3,0l-13.7,7.2a5.48,5.48,0,0,0-2.65,4.4Z"/><polygon class="cls-1" points="90.5 75.86 90.5 120.86 105.5 97.86 90.5 75.86"/><polygon class="cls-3" points="131.5 143.86 90.5 120.86 103.78 97.88 131.5 143.86"/><polygon class="cls-4" points="131.5 52.86 90.5 75.86 131.5 143.86 172.5 120.86 131.5 52.86"/><polygon class="cls-3" points="131.5 52.86 158.65 97.88 172.5 76.86 131.5 52.86"/><polygon class="cls-1" points="172.5 120.86 158.5 97.86 172.5 76.86 172.5 120.86"/></g></g></svg>