<svg xmlns="http://www.w3.org/2000/svg" viewBox="0 0 322 438"><defs><style>.cls-1{fill:#fff;}.cls-2{stroke:#000;stroke-miterlimit:10;}</style></defs><title>Ресурс 1</title><g id="Слой_2" data-name="Слой 2"><g id="Слой_8" data-name="Слой 8"><path class="cls-1" d="M322,56.5v344A37.5,37.5,0,0,1,284.5,438H37.5A37.5,37.5,0,0,1,0,400.5V56.5A37.5,37.5,0,0,1,37.5,19H144.29a32.37,32.37,0,0,0-4.11,13H109a11.88,11.88,0,0,0-4.77,1H51.5A37.5,37.5,0,0,0,14,70.5v316A37.5,37.5,0,0,0,51.5,424h220A37.5,37.5,0,0,0,309,386.5V70.5A37.5,37.5,0,0,0,271.5,33H217.77A11.88,11.88,0,0,0,213,32H185.79a32.33,32.33,0,0,0-4.12-13H284.5A37.5,37.5,0,0,1,322,56.5Z"/><path class="cls-1" d="M103.63,163H65.37A14.37,14.37,0,0,0,51,177.37v31.26A14.37,14.37,0,0,0,65.37,223h38.26A14.37,14.37,0,0,0,118,208.63V177.37A14.37,14.37,0,0,0,103.63,163ZM109,199.81a15.08,15.08,0,0,1-15.08,15.08H75.08A15.08,15.08,0,0,1,60,199.81V186.09A15.08,15.08,0,0,1,75.08,171H93.92A15.08,15.08,0,0,1,109,186.09Z"/><path class="cls-1" d="M103.63,229H65.37A14.37,14.37,0,0,0,51,243.37v31.26A14.37,14.37,0,0,0,65.37,289h38.26A14.37,14.37,0,0,0,118,274.63V243.37A14.37,14.37,0,0,0,103.63,229ZM109,266.81a15.08,15.08,0,0,1-15.08,15.08H75.08A15.08,15.08,0,0,1,60,266.81V253.09A15.08,15.08,0,0,1,75.08,238H93.92A15.08,15.08,0,0,1,109,253.09Z"/><path class="cls-1" d="M103.63,295H65.37A14.37,14.37,0,0,0,51,309.37v31.26A14.37,14.37,0,0,0,65.37,355h38.26A14.37,14.37,0,0,0,118,340.63V309.37A14.37,14.37,0,0,0,103.63,295ZM109,331.81a15.08,15.08,0,0,1-15.08,15.08H75.08A15.08,15.08,0,0,1,60,331.81V318.09A15.08,15.08,0,0,1,75.08,303H93.92A15.08,15.08,0,0,1,109,318.09Z"/><rect class="cls-1" x="135" y="179" width="137" height="29"/><rect class="cls-1" x="135" y="244" width="137" height="29"/><rect class="cls-1" x="135" y="311" width="137" height="29"/><rect class="cls-1" x="137" y="25" width="53" height="7"/><polygon class="cls-2" points="261 193.5 144 193.5 144 193.5 261 193.5 261 193.5"/><polygon class="cls-2" points="262 259.5 145 259.5 145 259.5 262 259.5 262 259.5"/><polygon class="cls-2" points="261 325.5 144 325.5 144 325.5 261 325.5 261 325.5"/><path class="cls-1" d="M211,19H181.67a32.33,32.33,0,0,1,4.12,13H213a11.88,11.88,0,0,1,4.77,1,7,7,0,0,1,.78.37c.26.13.51.28.75.43s.48.31.71.48a6.58,6.58,0,0,1,.68.53,8.43,8.43,0,0,1,.64.57,12.84,12.84,0,0,1,1.11,1.23c.19.24.37.49.54.74s.29.45.42.68a.35.35,0,0,0,0,.08c.13.23.25.46.36.7a6.65,6.65,0,0,1,.27.61c.06.12.1.23.15.35a12.92,12.92,0,0,1,.49,1.64c.05.25.1.51.14.77h0c0,.24.07.48.09.73a3.4,3.4,0,0,1,0,.45c0,.21,0,.42,0,.63V59a12,12,0,0,1-12,12H109A12,12,0,0,1,97,59V44c0-.21,0-.42,0-.63a3.4,3.4,0,0,1,0-.45c0-.25,0-.49.09-.73h0c0-.26.09-.52.14-.77a12.92,12.92,0,0,1,.49-1.64c0-.12.09-.23.15-.35a6.65,6.65,0,0,1,.27-.61c.11-.24.23-.47.36-.7a.35.35,0,0,0,0-.08c.13-.23.27-.46.42-.68s.35-.5.54-.74a12.84,12.84,0,0,1,1.11-1.23,8.43,8.43,0,0,1,.64-.57,6.58,6.58,0,0,1,.68-.53c.23-.17.47-.33.71-.48s.49-.3.75-.43a7,7,0,0,1,.78-.37A11.88,11.88,0,0,1,109,32h31.18a32.37,32.37,0,0,1,4.11-13H113A29,29,0,0,0,84,48V56a29,29,0,0,0,29,29H211a29,29,0,0,0,29-29V48A29,29,0,0,0,211,19Z"/><path class="cls-1" d="M162.5,27.5,135,26.83a27.5,27.5,0,0,1,55,.67Z"/></g></g></svg>